<mxfile host="app.diagrams.net" modified="2023-09-22T07:48:21.722Z" agent="Mozilla/5.0 (Windows NT 10.0; Win64; x64) AppleWebKit/537.36 (KHTML, like Gecko) Chrome/116.0.0.0 Safari/537.36" version="21.8.0" etag="bZdLAb0FPta5EU477eQB" type="github">
  <diagram name="Страница — 1" id="4IDBHG-5PgHdYiwiGXiX">
    <mxGraphModel>
      <root>
        <mxCell id="0" />
        <mxCell id="1" parent="0" />
      </root>
    </mxGraphModel>
  </diagram>
</mxfile>
